HIERARCHY
ROOT joint_Root
{
	OFFSET 0.0 0.0 0.0
	CHANNELS 6 Xposition Yposition Zposition Zrotation Xrotation Yrotation 
	JOINT Hips
	{
		OFFSET -17.1583 93.1646 452.98
		CHANNELS 6 Xposition Yposition Zposition Zrotation Xrotation Yrotation 
		JOINT Spine
		{
			OFFSET 15.7357 0.0 0.0
			CHANNELS 6 Xposition Yposition Zposition Zrotation Xrotation Yrotation 
			JOINT Chest
			{
				OFFSET 8.98455 -0.406207 0.0
				CHANNELS 6 Xposition Yposition Zposition Zrotation Xrotation Yrotation 
				JOINT Neck
				{
					OFFSET 16.3773 0.0 0.0
					CHANNELS 6 Xposition Yposition Zposition Zrotation Xrotation Yrotation 
					JOINT Head
					{
						OFFSET 6.45672 0.0 0.0
						CHANNELS 6 Xposition Yposition Zposition Zrotation Xrotation Yrotation 
						End Site
						{
							OFFSET 0.0 0.0 0.0
						}
					}
				}
				JOINT Shoulder_L
				{
					OFFSET 12.9942 -0.242716 4.98039
					CHANNELS 6 Xposition Yposition Zposition Zrotation Xrotation Yrotation 
					JOINT UpperArm_L
					{
						OFFSET 5.34809 0.0 0.0
						CHANNELS 6 Xposition Yposition Zposition Zrotation Xrotation Yrotation 
						JOINT LowerArm_L
						{
							OFFSET 24.3286 1.87007e-05 0.0
							CHANNELS 6 Xposition Yposition Zposition Zrotation Xrotation Yrotation 
							JOINT Hand_L
							{
								OFFSET 22.2916 0.0 0.0
								CHANNELS 6 Xposition Yposition Zposition Zrotation Xrotation Yrotation 
								End Site
								{
									OFFSET 0.0 0.0 0.0
								}
							}
						}
					}
				}
				JOINT Shoulder_R
				{
					OFFSET 12.9945 -0.242716 -4.98039
					CHANNELS 6 Xposition Yposition Zposition Zrotation Xrotation Yrotation 
					JOINT UpperArm_R
					{
						OFFSET -5.34813 0.0 0.0
						CHANNELS 6 Xposition Yposition Zposition Zrotation Xrotation Yrotation 
						JOINT LowerArm_R
						{
							OFFSET -24.3289 0.000322201 0.0
							CHANNELS 6 Xposition Yposition Zposition Zrotation Xrotation Yrotation 
							JOINT Hand_R
							{
								OFFSET -22.2915 -0.000108084 0.0
								CHANNELS 6 Xposition Yposition Zposition Zrotation Xrotation Yrotation 
								End Site
								{
									OFFSET 0.0 0.0 0.0
								}
							}
						}
					}
				}
			}
		}
		JOINT UpperLeg_L
		{
			OFFSET -2.19248 -6.46944 0.0
			CHANNELS 6 Xposition Yposition Zposition Zrotation Xrotation Yrotation 
			JOINT LowerLeg_L
			{
				OFFSET 39.0811 0.0 -1.23785e-05
				CHANNELS 6 Xposition Yposition Zposition Zrotation Xrotation Yrotation 
				JOINT Foot_L
				{
					OFFSET 40.9854 0.0 -1.26872e-05
					CHANNELS 6 Xposition Yposition Zposition Zrotation Xrotation Yrotation 
					JOINT Toes_L
					{
						OFFSET 11.7543 0.0 0.0
						CHANNELS 6 Xposition Yposition Zposition Zrotation Xrotation Yrotation 
						End Site
						{
							OFFSET 0.0 0.0 0.0
						}
					}
				}
			}
		}
		JOINT UpperLeg_R
		{
			OFFSET -2.19251 6.46944 0.0
			CHANNELS 6 Xposition Yposition Zposition Zrotation Xrotation Yrotation 
			JOINT LowerLeg_R
			{
				OFFSET -39.0811 -0.00228153 -0.0401928
				CHANNELS 6 Xposition Yposition Zposition Zrotation Xrotation Yrotation 
				JOINT Foot_R
				{
					OFFSET -40.9854 0.0 0.0
					CHANNELS 6 Xposition Yposition Zposition Zrotation Xrotation Yrotation 
					JOINT Toes_R
					{
						OFFSET -11.7543 0.0 0.0
						CHANNELS 6 Xposition Yposition Zposition Zrotation Xrotation Yrotation 
						End Site
						{
							OFFSET 0.0 0.0 0.0
						}
					}
				}
			}
		}
	}
}
MOTION
Frames:	8
Frame Time:	0.0333333
0.000000 0.000000 0.000000 0.000000 0.000000 -0.000000 -2.202160 93.528000 2.645310 88.092500 2.424320 -6.934110 15.735700 0.000005 -0.000001 -79.072000 88.194300 80.553400 8.984550 -0.406207 -0.000000 -11.299000 -0.926773 2.883100 16.377300 -0.000001 -0.000001 -8.447380 -0.664575 1.948510 6.456720 -0.000001 -0.000000 2.030430 0.396931 0.664024 12.994200 -0.242716 4.980390 -88.067900 -3.756040 -62.753100 5.348090 -0.000007 -0.000001 -76.292200 -56.433200 -123.662000 24.328600 0.000019 0.000005 0.000046 -10.722700 0.000001 22.291600 -0.000001 0.000005 51.115300 4.264470 20.337100 12.994500 -0.242716 -4.980390 93.641400 -6.733860 -61.509800 -5.348130 -0.000001 -0.000004 -78.647300 -56.485700 -131.411000 -24.328900 0.000322 -0.000009 -0.001081 -28.075800 -0.000160 -22.291500 -0.000108 -0.000004 49.375700 5.388010 -2.551880 -2.192480 -6.469440 -0.000000 -171.564000 -5.259050 0.177540 39.081100 -0.000007 -0.000012 -0.000001 -0.003991 0.000000 40.985400 -0.000006 -0.000013 -10.656200 14.125600 -60.461000 11.754300 -0.000000 0.000003 -0.000866 0.181112 -9.230160 -2.192510 6.469440 -0.000001 179.300000 10.275100 179.608000 -39.081100 -0.002282 -0.040193 0.005471 -0.036276 3.346850 -40.985400 0.000008 0.000006 -8.679440 4.875070 -63.907000 -11.754300 -0.000006 -0.000006 -0.011062 0.279077 -5.233000
0.000000 0.000000 0.000000 0.000000 0.000000 -0.000000 -2.208100 93.529100 2.645360 88.070200 2.431450 -6.898060 15.735700 0.000005 -0.000001 -79.196700 88.227800 80.661800 8.984550 -0.406207 -0.000000 -11.235100 -0.903134 2.853060 16.377300 -0.000001 -0.000001 -8.342020 -0.670157 1.935090 6.456720 -0.000001 -0.000000 2.072020 0.346070 0.663321 12.994200 -0.242716 4.980390 -88.080200 -3.725110 -62.708900 5.348090 -0.000007 -0.000001 -76.248000 -56.344200 -123.639000 24.328600 0.000019 0.000005 0.000045 -10.747200 0.000001 22.291600 -0.000001 0.000005 51.036800 4.272260 20.218100 12.994500 -0.242716 -4.980390 93.633600 -6.725580 -61.532000 -5.348130 -0.000001 -0.000004 -78.392600 -56.433300 -131.279000 -24.328900 0.000322 -0.000009 -0.001082 -27.994400 -0.000159 -22.291500 -0.000108 -0.000004 49.162300 5.386020 -2.488730 -2.192480 -6.469440 -0.000000 -171.531000 -5.201660 0.216614 39.081100 -0.000007 -0.000012 -0.000001 -0.005662 0.000006 40.985400 -0.000006 -0.000013 -10.768400 14.069400 -60.421500 11.754300 -0.000000 0.000003 -0.000692 0.178560 -9.333820 -2.192510 6.469440 -0.000001 179.312000 10.383900 179.663000 -39.081100 -0.002282 -0.040193 0.005430 -0.036067 3.299860 -40.985400 0.000008 0.000006 -8.761090 4.946930 -63.808700 -11.754300 -0.000006 -0.000006 -0.010915 0.278017 -5.276360
0.000000 0.000000 0.000000 0.000000 0.000000 -0.000000 -2.193450 93.528100 2.657860 88.072200 2.411530 -6.877890 15.735700 0.000005 -0.000001 -79.675800 88.266800 81.112200 8.984550 -0.406207 -0.000000 -11.164500 -0.854679 2.800720 16.377300 -0.000001 -0.000001 -8.295610 -0.677035 1.899610 6.456720 -0.000001 -0.000000 2.131090 0.313913 0.688019 12.994200 -0.242716 4.980390 -88.072800 -3.734380 -62.677100 5.348090 -0.000007 -0.000001 -76.211900 -56.278500 -123.595000 24.328600 0.000019 0.000005 0.000044 -10.619000 0.000001 22.291600 -0.000001 0.000005 51.131000 4.252780 20.515200 12.994500 -0.242716 -4.980390 93.637200 -6.737500 -61.550100 -5.348130 -0.000001 -0.000004 -78.184300 -56.410100 -131.165000 -24.328900 0.000322 -0.000009 -0.001080 -27.952200 -0.000159 -22.291500 -0.000108 -0.000004 49.156300 5.386230 -2.495410 -2.192480 -6.469440 -0.000000 -171.540000 -5.098330 0.243327 39.081100 -0.000007 -0.000012 -0.000001 -0.004716 0.000003 40.985400 -0.000006 -0.000013 -10.786900 13.949500 -60.435300 11.754300 -0.000000 0.000003 -0.000773 0.179759 -9.285130 -2.192510 6.469440 -0.000001 179.293000 10.460100 179.694000 -39.081100 -0.002282 -0.040193 0.005402 -0.035791 3.280750 -40.985400 0.000008 0.000006 -8.771410 5.046460 -63.768300 -11.754300 -0.000006 -0.000006 -0.010908 0.277969 -5.278350
0.000000 0.000000 0.000000 0.000000 0.000000 -0.000000 -2.190010 93.533000 2.666240 88.102600 2.422530 -6.878280 15.735700 0.000005 -0.000001 -79.701700 88.292300 81.106200 8.984550 -0.406207 -0.000000 -11.115200 -0.838250 2.738410 16.377300 -0.000001 -0.000001 -8.265970 -0.651237 1.885140 6.456720 -0.000001 -0.000000 2.176060 0.347044 0.675531 12.994200 -0.242716 4.980390 -88.065000 -3.748180 -62.669200 5.348090 -0.000007 -0.000001 -76.248400 -56.210400 -123.576000 24.328600 0.000019 0.000005 0.000045 -10.614100 0.000001 22.291600 -0.000001 0.000005 51.211100 4.256210 20.463000 12.994500 -0.242716 -4.980390 93.647900 -6.755960 -61.544700 -5.348130 -0.000001 -0.000004 -78.076700 -56.291500 -131.106000 -24.328900 0.000322 -0.000009 -0.001082 -27.886300 -0.000159 -22.291500 -0.000108 -0.000004 49.059300 5.389020 -2.584130 -2.192480 -6.469440 -0.000000 -171.580000 -5.108210 0.245098 39.081100 -0.000007 -0.000012 -0.000001 -0.004065 0.000003 40.985400 -0.000006 -0.000013 -10.699200 13.979000 -60.406000 11.754300 -0.000000 0.000003 -0.000818 0.180415 -9.258460 -2.192510 6.469440 -0.000001 179.254000 10.471000 179.721000 -39.081100 -0.002282 -0.040193 0.005414 -0.036344 3.250160 -40.985400 0.000008 0.000006 -8.785990 5.051110 -63.763400 -11.754300 -0.000006 -0.000006 -0.010825 0.277371 -5.302810
0.000000 0.000000 0.000000 0.000000 0.000000 -0.000000 -2.188780 93.540500 2.675170 88.109700 2.489900 -6.913800 15.735700 0.000005 -0.000001 -79.516400 88.300500 80.891300 8.984550 -0.406207 -0.000000 -11.097300 -0.841027 2.678930 16.377300 -0.000001 -0.000001 -8.224160 -0.645517 1.854200 6.456720 -0.000001 -0.000000 2.171190 0.336934 0.690291 12.994200 -0.242716 4.980390 -88.062500 -3.758220 -62.701900 5.348090 -0.000007 -0.000001 -76.284400 -56.166900 -123.659000 24.328600 0.000019 0.000005 0.000045 -10.630200 0.000001 22.291600 -0.000001 0.000005 51.090300 4.256180 20.463400 12.994500 -0.242716 -4.980390 93.672500 -6.786310 -61.490300 -5.348130 -0.000001 -0.000004 -78.015100 -56.157300 -130.978000 -24.328900 0.000322 -0.000009 -0.001081 -27.750500 -0.000158 -22.291500 -0.000108 -0.000004 49.084400 5.386030 -2.489180 -2.192480 -6.469440 -0.000000 -171.583000 -5.143130 0.199346 39.081100 -0.000007 -0.000012 -0.000001 -0.006214 0.000000 40.985400 -0.000006 -0.000013 -10.726700 14.078100 -60.388000 11.754300 -0.000000 0.000003 -0.000869 0.181153 -9.228480 -2.192510 6.469440 -0.000001 179.263000 10.564900 179.695000 -39.081100 -0.002282 -0.040193 0.005421 -0.036439 3.252400 -40.985400 0.000008 0.000006 -8.775820 5.046440 -63.764700 -11.754300 -0.000006 -0.000006 -0.011089 0.279272 -5.225000
0.000000 0.000000 0.000000 0.000000 0.000000 -0.000000 -2.175080 93.536300 2.701950 88.125900 2.537050 -6.929320 15.735700 0.000005 -0.000001 -79.176400 88.317800 80.527100 8.984550 -0.406207 -0.000000 -11.059800 -0.849899 2.629660 16.377300 -0.000001 -0.000001 -8.243040 -0.642997 1.822350 6.456720 -0.000001 -0.000000 2.196480 0.331736 0.674352 12.994200 -0.242716 4.980390 -88.051300 -3.775820 -62.675500 5.348090 -0.000007 -0.000001 -76.334000 -56.079600 -123.726000 24.328600 0.000019 0.000005 0.000045 -10.611500 0.000001 22.291600 -0.000001 0.000005 51.135900 4.259970 20.405800 12.994500 -0.242716 -4.980390 93.668500 -6.793210 -61.540500 -5.348130 -0.000001 -0.000004 -77.696400 -56.254600 -130.734000 -24.328900 0.000322 -0.000009 -0.001080 -27.756500 -0.000158 -22.291500 -0.000108 -0.000004 48.897000 5.387870 -2.547420 -2.192480 -6.469440 -0.000000 -171.595000 -4.990880 0.181450 39.081100 -0.000007 -0.000012 -0.000001 -0.007892 0.000006 40.985400 -0.000006 -0.000013 -10.811500 13.981000 -60.377700 11.754300 -0.000000 0.000003 -0.000849 0.180866 -9.240160 -2.192510 6.469440 -0.000001 179.238000 10.634200 179.696000 -39.081100 -0.002282 -0.040193 0.005483 -0.037440 3.260380 -40.985400 0.000008 0.000006 -8.851500 5.082320 -63.735300 -11.754300 -0.000006 -0.000006 -0.010647 0.276079 -5.355660
0.000000 0.000000 0.000000 0.000000 0.000000 -0.000000 -2.177420 93.527600 2.732430 88.121200 2.646160 -6.905090 15.735700 0.000005 -0.000001 -78.675100 88.352400 80.003900 8.984550 -0.406207 -0.000000 -10.986300 -0.860686 2.584940 16.377300 -0.000001 -0.000001 -8.214870 -0.674364 1.771230 6.456720 -0.000001 -0.000000 2.075360 0.275497 0.693833 12.994200 -0.242716 4.980390 -88.049700 -3.777410 -62.666700 5.348090 -0.000007 -0.000001 -76.269000 -56.002200 -123.778000 24.328600 0.000019 0.000005 0.000045 -10.626300 0.000001 22.291600 -0.000001 0.000005 51.167200 4.261990 20.374800 12.994500 -0.242716 -4.980390 93.658000 -6.771730 -61.533900 -5.348130 -0.000001 -0.000004 -77.612200 -56.286400 -130.674000 -24.328900 0.000322 -0.000009 -0.001081 -27.785100 -0.000158 -22.291500 -0.000108 -0.000004 48.754500 5.384830 -2.451120 -2.192480 -6.469440 -0.000000 -171.580000 -5.010350 0.221597 39.081100 -0.000007 -0.000012 -0.000001 -0.005799 0.000001 40.985400 -0.000006 -0.000013 -10.713200 14.106600 -60.438000 11.754300 -0.000000 0.000003 -0.000756 0.179503 -9.295520 -2.192510 6.469440 -0.000001 179.242000 10.628100 179.723000 -39.081100 -0.002282 -0.040193 0.005460 -0.036314 3.325820 -40.985400 0.000008 0.000006 -8.871040 4.985880 -63.823700 -11.754300 -0.000006 -0.000006 -0.010777 0.277023 -5.317070
0.000000 0.000000 0.000000 0.000000 0.000000 -0.000000 -2.157480 93.517300 2.770720 88.125700 2.726780 -6.907610 15.735700 0.000005 -0.000001 -78.290100 88.377100 79.601000 8.984550 -0.406207 -0.000000 -10.933700 -0.868821 2.548570 16.377300 -0.000001 -0.000001 -8.272210 -0.676304 1.763100 6.456720 -0.000001 -0.000000 2.110090 0.292724 0.664199 12.994200 -0.242716 4.980390 -88.054000 -3.770740 -62.676100 5.348090 -0.000007 -0.000001 -76.048900 -56.020600 -123.711000 24.328600 0.000019 0.000005 0.000044 -10.545200 0.000001 22.291600 -0.000001 0.000005 51.060300 4.259360 20.415100 12.994500 -0.242716 -4.980390 93.657600 -6.768440 -61.525300 -5.348130 -0.000001 -0.000004 -77.507100 -56.296600 -130.562000 -24.328900 0.000322 -0.000009 -0.001081 -27.827800 -0.000158 -22.291500 -0.000108 -0.000004 48.757800 5.386620 -2.507890 -2.192480 -6.469440 -0.000000 -171.583000 -4.932280 0.223382 39.081100 -0.000007 -0.000012 -0.000001 -0.004595 0.000003 40.985400 -0.000006 -0.000013 -10.736600 14.119200 -60.457400 11.754300 -0.000000 0.000003 -0.000811 0.180310 -9.262740 -2.192510 6.469440 -0.000001 179.232000 10.785300 179.759000 -39.081100 -0.002282 -0.040193 0.005428 -0.035895 3.313540 -40.985400 0.000008 0.000006 -8.918070 5.051050 -63.842100 -11.754300 -0.000006 -0.000006 -0.010953 0.278294 -5.265050
